<svg width="22" height="22" viewBox="0 0 22 22" fill="none" xmlns="http://www.w3.org/2000/svg">
<path d="M11.002 21.5478C8.13195 21.5478 7.79362 21.5327 6.67362 21.4837C5.80022 21.4549 4.93813 21.2774 4.12445 20.9587C2.71665 20.4108 1.60345 19.2972 1.05612 17.8892C0.749644 17.0725 0.584341 16.2097 0.567286 15.3377C0.501953 14.22 0.501953 13.8537 0.501953 11.0058C0.501953 8.12766 0.51712 7.79166 0.567286 6.6775C0.584714 5.8066 0.750011 4.945 1.05612 4.1295C1.60286 2.71961 2.71786 1.60503 4.12795 1.05883C4.94304 0.751065 5.80486 0.585331 6.67595 0.568829C7.79012 0.505829 8.15645 0.505829 11.002 0.505829C13.8953 0.505829 14.2278 0.520996 15.3303 0.568829C16.2036 0.585473 17.0677 0.75119 17.8853 1.05883C19.295 1.60565 20.4098 2.72002 20.9571 4.1295C21.2688 4.95689 21.4349 5.83196 21.4483 6.716C21.5136 7.83366 21.5136 8.19883 21.5136 11.0455C21.5136 13.8922 21.4973 14.2655 21.4483 15.3703C21.4309 16.2432 21.2652 17.1068 20.9583 17.9242C20.4096 19.3332 19.2947 20.4472 17.8853 20.9948C17.0689 21.3007 16.2066 21.466 15.335 21.4837C14.2208 21.5478 13.8556 21.5478 11.002 21.5478ZM10.9623 2.35266C8.10862 2.35266 7.81229 2.36666 6.69812 2.41683C6.0331 2.42564 5.37451 2.54836 4.75095 2.77966C3.83016 3.13201 3.10155 3.85765 2.74545 4.777C2.51237 5.40734 2.38963 6.07314 2.38262 6.74516C2.32079 7.87566 2.32079 8.172 2.32079 11.0058C2.32079 13.8058 2.33129 14.1453 2.38262 15.2688C2.39306 15.9341 2.51573 16.5928 2.74545 17.2172C3.10208 18.1359 3.83056 18.861 4.75095 19.2133C5.37409 19.4462 6.03295 19.5689 6.69812 19.5762C7.82745 19.6415 8.12495 19.6415 10.9623 19.6415C13.8241 19.6415 14.1205 19.6275 15.2253 19.5762C15.8908 19.5681 16.5498 19.4453 17.1736 19.2133C18.0888 18.8579 18.8127 18.1345 19.1686 17.2195C19.4013 16.5886 19.524 15.9225 19.5315 15.2502H19.5443C19.5945 14.1348 19.5945 13.8373 19.5945 10.9872C19.5945 8.137 19.5816 7.83716 19.5315 6.723C19.521 6.05852 19.3983 5.40059 19.1686 4.777C18.8135 3.86066 18.0895 3.13584 17.1736 2.77966C16.55 2.54719 15.8908 2.42444 15.2253 2.41683C14.0971 2.35266 13.802 2.35266 10.9623 2.35266ZM11.002 16.3947C8.82027 16.3961 6.85261 15.083 6.01663 13.0679C5.18064 11.0527 5.64101 8.73238 7.18302 7.18903C8.72504 5.64569 11.045 5.18331 13.0608 6.01755C15.0767 6.85179 16.3915 8.81832 16.392 11C16.3887 13.9762 13.9782 16.3889 11.002 16.3947ZM11.002 7.49766C9.06896 7.49766 7.50195 9.06467 7.50195 10.9977C7.50195 12.9307 9.06896 14.4977 11.002 14.4977C12.935 14.4977 14.502 12.9307 14.502 10.9977C14.4975 9.06653 12.9331 7.50215 11.002 7.49766ZM16.602 6.66583C15.9083 6.66325 15.3477 6.09952 15.349 5.40584C15.3502 4.71216 15.9129 4.1505 16.6066 4.1505C17.3003 4.1505 17.863 4.71215 17.8643 5.40583C17.8646 5.7405 17.7316 6.06152 17.4948 6.29795C17.2579 6.53438 16.9366 6.66676 16.602 6.66583Z" fill="#B9994B"/>
</svg>
