<svg width="24" height="18" viewBox="0 0 24 18" fill="none" xmlns="http://www.w3.org/2000/svg">
<path d="M12.0072 17.1807H11.9838C11.9115 17.1807 4.67467 17.1667 2.84883 16.6708C1.84483 16.4004 1.06074 15.6158 0.790835 14.6117C0.462509 12.7594 0.303962 10.8811 0.317168 9.00001C0.308685 7.11586 0.471522 5.23484 0.803668 3.38018C1.08099 2.37511 1.86163 1.58695 2.864 1.30001C4.63967 0.833344 11.677 0.833344 11.9757 0.833344H12.0002C12.0737 0.833344 19.3292 0.847344 21.1363 1.34318C22.1382 1.61502 22.9207 2.39796 23.192 3.40001C23.5308 5.25914 23.6898 7.14657 23.6668 9.03618C23.675 10.918 23.5118 12.7968 23.1792 14.649C22.9058 15.6519 22.1212 16.4347 21.1177 16.7058C19.3443 17.176 12.3058 17.1807 12.0072 17.1807ZM9.67384 5.50584L9.668 12.5058L15.7487 9.00585L9.67384 5.50584Z" fill="#B9994B"/>
</svg>
