<svg width="86" height="88" viewBox="0 0 86 88" fill="none" xmlns="http://www.w3.org/2000/svg">
<path opacity="0.5" d="M70.9436 12.3739L70.687 12.6474L70.9436 12.3739ZM80.6354 88L82.8264 84.2651L78.4964 84.2351L80.6354 88ZM-1.20369e-06 3.53456C1.55871 3.53456 3.10231 3.50786 4.63085 3.4604L4.60757 2.71076C3.08595 2.75801 1.55015 2.78456 1.20369e-06 2.78456L-1.20369e-06 3.53456ZM13.8678 2.95627C17.0032 2.72619 20.0738 2.45689 23.0743 2.20675L23.012 1.45934C20.0073 1.70984 16.9434 1.97856 13.8129 2.20828L13.8678 2.95627ZM32.2727 1.54961C35.4194 1.38727 38.4849 1.32064 41.4726 1.42554L41.4989 0.675998C38.4829 0.570102 35.3945 0.637558 32.2341 0.800604L32.2727 1.54961ZM50.5871 2.40319C53.5829 2.98213 56.4928 3.84257 59.3204 5.07448L59.6199 4.3869C56.7362 3.13051 53.7727 2.25495 50.7294 1.66682L50.5871 2.40319ZM67.1903 9.69205C68.3705 10.5848 69.536 11.5673 70.687 12.6474L71.2003 12.1005C70.0304 11.0027 68.8447 10.0031 67.6427 9.09391L67.1903 9.69205ZM70.687 12.6474C71.9414 13.8244 73.0711 15.0019 74.0876 16.1856L74.6566 15.6969C73.6213 14.4914 72.4727 13.2945 71.2003 12.1005L70.687 12.6474ZM79.3755 24.3769C80.7233 27.3553 81.5689 30.4532 82.0585 33.7537L82.8003 33.6436C82.3022 30.2852 81.4394 27.1187 80.0588 24.0677L79.3755 24.3769ZM82.6178 43.5525C82.5795 46.6361 82.3922 49.9053 82.1381 53.4077L82.8861 53.462C83.1407 49.9541 83.3292 46.6676 83.3677 43.5618L82.6178 43.5525ZM81.3655 63.2636C81.1229 66.3803 80.8846 69.6652 80.6917 73.1392L81.4406 73.1807C81.633 69.7147 81.8709 66.4359 82.1133 63.3218L81.3655 63.2636ZM80.3108 83.0337C80.3002 83.5584 80.2912 84.0871 80.2839 84.6197L81.0338 84.63C81.0411 84.099 81.0501 83.5719 81.0606 83.0488L80.3108 83.0337ZM70.9436 12.3739L70.4304 12.9208L70.9436 12.3739ZM80.6354 88L85.0414 80.5443L76.3815 80.4565L80.6354 88ZM-2.40738e-06 3.90956C1.56298 3.90956 3.11049 3.88279 4.64248 3.83522L4.59593 2.33594C3.07777 2.38308 1.54588 2.40956 2.40738e-06 2.40956L-2.40738e-06 3.90956ZM13.8952 3.33027C17.0331 3.1 20.107 2.83042 23.1054 2.58045L22.9808 1.08564C19.974 1.33631 16.9135 1.60475 13.7854 1.83429L13.8952 3.33027ZM32.292 1.92411C35.4319 1.76212 38.486 1.6959 41.4594 1.8003L41.512 0.301229C38.4819 0.194835 35.382 0.262703 32.2147 0.426102L32.292 1.92411ZM50.516 2.77138C53.4879 3.34572 56.3711 4.19859 59.1706 5.41826L59.7697 4.04311C56.8579 2.77448 53.8677 1.89136 50.8006 1.29863L50.516 2.77138ZM66.964 9.99112C68.1334 10.8757 69.2888 11.8496 70.4304 12.9208L71.4569 11.827C70.2776 10.7205 69.0817 9.71227 67.869 8.79484L66.964 9.99112ZM70.4304 12.9208C71.6757 14.0893 72.7961 15.2571 73.8031 16.4299L74.9411 15.4526C73.8964 14.2361 72.7384 13.0296 71.4569 11.827L70.4304 12.9208ZM79.0339 24.5315C80.3652 27.4736 81.2022 30.5372 81.6875 33.8087L83.1713 33.5886C82.6688 30.2012 81.7975 27.0004 80.4005 23.9131L79.0339 24.5315ZM82.2428 43.5478C82.2047 46.6203 82.018 49.8809 81.7641 53.3806L83.2601 53.4891C83.5149 49.9785 83.704 46.6834 83.7427 43.5665L82.2428 43.5478ZM80.9917 63.2345C80.749 66.3525 80.5104 69.6405 80.3173 73.1184L81.815 73.2015C82.0072 69.7394 82.2448 66.4637 82.4871 63.3509L80.9917 63.2345Z" fill="#60553F"/>
</svg>
