<svg width="1920" height="330" viewBox="0 0 1920 330" fill="none" xmlns="http://www.w3.org/2000/svg">
<path opacity="0.5" d="M1918.5 19.5C1831.17 2.16665 1616.3 -16.2 1455.5 49C1254.5 130.5 1028.5 295.68 634.5 265C272 236.773 254 33 1 1" stroke="#EED9B3" stroke-dasharray="5 2"/>
<path opacity="0.5" d="M1920 50C1832.67 32.6666 1617.8 14.3 1457 79.5C1256 161 1030 326.18 636 295.5C273.5 267.273 255.5 63.5 2.5 31.5" stroke="#EED9B3" stroke-dasharray="5 2"/>
<path opacity="0.5" d="M1919 80C1831.67 62.6666 1616.8 44.3 1456 109.5C1255 191 1029 356.18 635 325.5C272.5 297.273 254.5 93.5 1.5 61.5" stroke="#EED9B3" stroke-dasharray="5 2"/>
</svg>
