<svg width="20" height="14" viewBox="0 0 20 14" fill="none" xmlns="http://www.w3.org/2000/svg">
<path d="M6.62537 9.12598C8.86902 9.12598 10.6879 7.30713 10.6879 5.06348C10.6879 2.81982 8.86902 1.00098 6.62537 1.00098C4.38171 1.00098 2.56287 2.81982 2.56287 5.06348C2.56287 7.30713 4.38171 9.12598 6.62537 9.12598Z" stroke="#DFCD9B" stroke-width="2" stroke-miterlimit="10"/>
<path d="M11.8919 1.15226C12.4507 0.994826 13.0367 0.958962 13.6105 1.04708C14.1843 1.1352 14.7325 1.34526 15.2183 1.6631C15.7041 1.98095 16.1161 2.3992 16.4266 2.8897C16.7371 3.38019 16.9389 3.93153 17.0184 4.50658C17.0979 5.08163 17.0533 5.66704 16.8875 6.22338C16.7217 6.77972 16.4386 7.29407 16.0573 7.73179C15.6759 8.1695 15.2052 8.52042 14.6769 8.76091C14.1485 9.0014 13.5747 9.12586 12.9942 9.12593" stroke="#DFCD9B" stroke-width="2" stroke-linecap="round" stroke-linejoin="round"/>
<path d="M1 12.0476C1.63448 11.1451 2.47679 10.4085 3.45582 9.9C4.43485 9.3915 5.52186 9.12602 6.62507 9.12598C7.72828 9.12593 8.8153 9.39133 9.79437 9.89976C10.7734 10.4082 11.6158 11.1447 12.2504 12.0472" stroke="#DFCD9B" stroke-width="2" stroke-linecap="round" stroke-linejoin="round"/>
<path d="M12.9942 9.12598C14.0975 9.12518 15.1848 9.39025 16.1639 9.89874C17.1431 10.4072 17.9853 11.1442 18.6192 12.0472" stroke="#DFCD9B" stroke-width="2" stroke-linecap="round" stroke-linejoin="round"/>
</svg>
