<svg width="17" height="18" viewBox="0 0 17 18" fill="none" xmlns="http://www.w3.org/2000/svg">
<path d="M14.75 6.875H2.25C1.90482 6.875 1.625 7.15482 1.625 7.5V16.25C1.625 16.5952 1.90482 16.875 2.25 16.875H14.75C15.0952 16.875 15.375 16.5952 15.375 16.25V7.5C15.375 7.15482 15.0952 6.875 14.75 6.875Z" stroke="#DFCD9B" stroke-width="2" stroke-linecap="round" stroke-linejoin="round"/>
<path d="M5.6875 6.875V4.0625C5.6875 3.31658 5.98382 2.60121 6.51126 2.07376C7.03871 1.54632 7.75408 1.25 8.5 1.25C9.24592 1.25 9.96129 1.54632 10.4887 2.07376C11.0162 2.60121 11.3125 3.31658 11.3125 4.0625V6.875" stroke="#DFCD9B" stroke-width="2" stroke-linecap="round" stroke-linejoin="round"/>
<path d="M8.5 12.8125C9.01777 12.8125 9.4375 12.3928 9.4375 11.875C9.4375 11.3572 9.01777 10.9375 8.5 10.9375C7.98223 10.9375 7.5625 11.3572 7.5625 11.875C7.5625 12.3928 7.98223 12.8125 8.5 12.8125Z" fill="#DFCD9B"/>
</svg>
