<svg width="32" height="64" viewBox="0 0 32 64" fill="none" xmlns="http://www.w3.org/2000/svg">
<path d="M16.5514 23.8416L22.8558 27.8358C23.6617 28.3464 24.6622 27.587 24.4231 26.6463L22.6016 19.481C22.5503 19.2815 22.5564 19.0715 22.6191 18.8752C22.6819 18.6789 22.7987 18.5044 22.9563 18.3715L28.6097 13.6661C29.3525 13.0478 28.9691 11.815 28.0148 11.7531L20.6318 11.2739C20.4329 11.2597 20.2422 11.1893 20.0818 11.0709C19.9214 10.9525 19.7979 10.791 19.7258 10.6051L16.9722 3.67097C16.8974 3.4737 16.7643 3.30387 16.5906 3.18403C16.417 3.06418 16.211 3 16 3C15.789 3 15.583 3.06418 15.4094 3.18403C15.2357 3.30387 15.1026 3.4737 15.0278 3.67097L12.2742 10.6051C12.2021 10.791 12.0786 10.9525 11.9182 11.0709C11.7578 11.1893 11.5671 11.2597 11.3682 11.2739L3.98525 11.7531C3.03087 11.815 2.64746 13.0478 3.3903 13.6661L9.04371 18.3715C9.20126 18.5044 9.31813 18.6789 9.38088 18.8752C9.44362 19.0715 9.4497 19.2815 9.39841 19.481L7.70918 26.126C7.42222 27.2549 8.62287 28.1661 9.58991 27.5534L15.4486 23.8416C15.6134 23.7367 15.8047 23.681 16 23.681C16.1953 23.681 16.3866 23.7367 16.5514 23.8416V23.8416Z" stroke="#F2C94C" stroke-width="2" stroke-linecap="round" stroke-linejoin="round"/>
<path d="M16.5514 55.8416L22.8558 59.8358C23.6617 60.3464 24.6622 59.587 24.4231 58.6463L22.6016 51.481C22.5503 51.2815 22.5564 51.0715 22.6191 50.8752C22.6819 50.6789 22.7987 50.5044 22.9563 50.3715L28.6097 45.6661C29.3525 45.0478 28.9691 43.815 28.0148 43.7531L20.6318 43.2739C20.4329 43.2597 20.2422 43.1893 20.0818 43.0709C19.9214 42.9525 19.7979 42.791 19.7258 42.6051L16.9722 35.671C16.8974 35.4737 16.7643 35.3039 16.5906 35.184C16.417 35.0642 16.211 35 16 35C15.789 35 15.583 35.0642 15.4094 35.184C15.2357 35.3039 15.1026 35.4737 15.0278 35.671L12.2742 42.6051C12.2021 42.791 12.0786 42.9525 11.9182 43.0709C11.7578 43.1893 11.5671 43.2597 11.3682 43.2739L3.98525 43.7531C3.03087 43.815 2.64746 45.0478 3.3903 45.6661L9.04371 50.3715C9.20126 50.5044 9.31813 50.6789 9.38088 50.8752C9.44362 51.0715 9.4497 51.2815 9.39841 51.481L7.70918 58.126C7.42222 59.2549 8.62287 60.1661 9.58991 59.5534L15.4486 55.8416C15.6134 55.7367 15.8047 55.681 16 55.681C16.1953 55.681 16.3866 55.7367 16.5514 55.8416V55.8416Z" fill="#F2C94C" stroke="#F2C94C" stroke-width="2" stroke-linecap="round" stroke-linejoin="round"/>
</svg>
