<svg width="18" height="19" viewBox="0 0 18 19" fill="none" xmlns="http://www.w3.org/2000/svg">
<path fill-rule="evenodd" clip-rule="evenodd" d="M9 2.3C5.02355 2.3 1.8 5.52355 1.8 9.5C1.8 13.4764 5.02355 16.7 9 16.7C12.9764 16.7 16.2 13.4764 16.2 9.5C16.2 5.52355 12.9764 2.3 9 2.3ZM0 9.5C0 4.52944 4.02944 0.5 9 0.5C13.9706 0.5 18 4.52944 18 9.5C18 14.4706 13.9706 18.5 9 18.5C4.02944 18.5 0 14.4706 0 9.5Z" fill="#DFCD9B"/>
<path fill-rule="evenodd" clip-rule="evenodd" d="M0.461182 6.7999C0.461182 6.30285 0.864125 5.8999 1.36118 5.8999H16.6385C17.1356 5.8999 17.5385 6.30285 17.5385 6.7999C17.5385 7.29696 17.1356 7.6999 16.6385 7.6999H1.36118C0.864125 7.6999 0.461182 7.29696 0.461182 6.7999Z" fill="#DFCD9B"/>
<path fill-rule="evenodd" clip-rule="evenodd" d="M0.46167 12.2C0.46167 11.703 0.864614 11.3 1.36167 11.3H16.6389C17.136 11.3 17.5389 11.703 17.5389 12.2C17.5389 12.6971 17.136 13.1 16.6389 13.1H1.36167C0.864614 13.1 0.46167 12.6971 0.46167 12.2Z" fill="#DFCD9B"/>
<path fill-rule="evenodd" clip-rule="evenodd" d="M7.44097 4.28027C6.88866 5.57022 6.5251 7.415 6.5251 9.49985C6.5251 11.5847 6.88866 13.4295 7.44097 14.7194C7.71781 15.366 8.02435 15.8317 8.31889 16.1227C8.60959 16.4099 8.83876 16.4824 9.0001 16.4824C9.16143 16.4824 9.3906 16.4099 9.6813 16.1227C9.97584 15.8317 10.2824 15.366 10.5592 14.7194C11.1115 13.4295 11.4751 11.5847 11.4751 9.49985C11.4751 7.415 11.1115 5.57022 10.5592 4.28027C10.2824 3.63368 9.97584 3.16797 9.6813 2.87701C9.3906 2.58984 9.16143 2.51729 9.0001 2.51729C8.83876 2.51729 8.60959 2.58984 8.31889 2.87701C8.02435 3.16797 7.71781 3.63368 7.44097 4.28027ZM7.0539 1.59647C7.57076 1.08588 8.22945 0.717285 9.0001 0.717285C9.77074 0.717285 10.4294 1.08588 10.9463 1.59647C11.4593 2.10326 11.88 2.79192 12.2139 3.57179C12.8831 5.13477 13.2751 7.23127 13.2751 9.49985C13.2751 11.7684 12.8831 13.8649 12.2139 15.4279C11.88 16.2078 11.4593 16.8964 10.9463 17.4032C10.4294 17.9138 9.77074 18.2824 9.0001 18.2824C8.22945 18.2824 7.57076 17.9138 7.0539 17.4032C6.54088 16.8964 6.12017 16.2078 5.78626 15.4279C5.11705 13.8649 4.7251 11.7684 4.7251 9.49985C4.7251 7.23127 5.11705 5.13477 5.78626 3.57179C6.12017 2.79192 6.54088 2.10326 7.0539 1.59647Z" fill="#DFCD9B"/>
</svg>
