<svg width="14" height="20" viewBox="0 0 14 20" fill="none" xmlns="http://www.w3.org/2000/svg">
<path fill-rule="evenodd" clip-rule="evenodd" d="M2.32558 1.86047C2.0687 1.86047 1.86047 2.0687 1.86047 2.32558V17.6744C1.86047 17.9313 2.0687 18.1395 2.32558 18.1395H10.6977C10.9546 18.1395 11.1628 17.9313 11.1628 17.6744V2.32558C11.1628 2.0687 10.9546 1.86047 10.6977 1.86047H2.32558ZM0 2.32558C0 1.0412 1.0412 0 2.32558 0H10.6977C11.9821 0 13.0233 1.0412 13.0233 2.32558V17.6744C13.0233 18.9588 11.9821 20 10.6977 20H2.32558C1.0412 20 0 18.9588 0 17.6744V2.32558Z" fill="#DFCD9B"/>
<path fill-rule="evenodd" clip-rule="evenodd" d="M0 3.72093C0 3.20718 0.416479 2.7907 0.930233 2.7907H12.093C12.6068 2.7907 13.0233 3.20718 13.0233 3.72093C13.0233 4.23468 12.6068 4.65116 12.093 4.65116H0.930233C0.416479 4.65116 0 4.23468 0 3.72093Z" fill="#DFCD9B"/>
<path fill-rule="evenodd" clip-rule="evenodd" d="M0 16.2791C0 15.7653 0.416479 15.3488 0.930233 15.3488H12.093C12.6068 15.3488 13.0233 15.7653 13.0233 16.2791C13.0233 16.7928 12.6068 17.2093 12.093 17.2093H0.930233C0.416479 17.2093 0 16.7928 0 16.2791Z" fill="#DFCD9B"/>
</svg>
