<svg width="20" height="21" viewBox="0 0 20 21" fill="none" xmlns="http://www.w3.org/2000/svg">
	<path fill-rule="evenodd" clip-rule="evenodd" d="M15.5 1.25C15.5 0.697715 15.0523 0.25 14.5 0.25C13.9477 0.25 13.5 0.697715 13.5 1.25V1.75H6.5V1.25C6.5 0.697715 6.05228 0.25 5.5 0.25C4.94772 0.25 4.5 0.697715 4.5 1.25V1.75H2.5C1.5335 1.75 0.75 2.5335 0.75 3.5V7.25V18.5C0.75 19.4665 1.5335 20.25 2.5 20.25H17.5C18.4665 20.25 19.25 19.4665 19.25 18.5V7.25V3.5C19.25 2.5335 18.4665 1.75 17.5 1.75H15.5V1.25ZM17.25 6.25V3.75H15.5V4.25C15.5 4.80228 15.0523 5.25 14.5 5.25C13.9477 5.25 13.5 4.80228 13.5 4.25V3.75H6.5V4.25C6.5 4.80228 6.05228 5.25 5.5 5.25C4.94772 5.25 4.5 4.80228 4.5 4.25V3.75H2.75V6.25H17.25ZM2.75 8.25H17.25V18.25H2.75V8.25Z" fill="#DFCD9B"/>
</svg>