<svg width="44" height="50" viewBox="0 0 44 50" fill="none" xmlns="http://www.w3.org/2000/svg">
<path fill-rule="evenodd" clip-rule="evenodd" d="M28.2638 25.9298L28.3315 42.029L23.9684 44.5431V36.4259L11.5671 30.0561C9.94363 31.0933 9.88726 32.5251 10.9696 34.2274L19.6731 38.737V44.4867L4.16009 35.6592V18.6243L19.301 27.3165L19.6167 27.4969V29.1542L23.9684 31.5668V27.4969C23.9684 27.4969 23.6753 24.3176 22.097 23.7427L3.38219 13.5284C2.19842 12.8858 0 14.7573 0 17.0234V33.4608C0.0204258 34.6946 0.329907 35.9065 0.90359 36.999C1.47727 38.0916 2.29917 39.0344 3.30327 39.7517L20.4622 49.6051C20.8579 49.8632 21.3201 50.0006 21.7926 50.0006C22.265 50.0006 22.7272 49.8632 23.1229 49.6051L40.2818 39.7517C41.2859 39.0344 42.1078 38.0916 42.6815 36.999C43.2552 35.9065 43.5647 34.6946 43.5851 33.4608V18.2973L38.8839 20.6423V33.0437C38.8839 34.7348 38.5344 36.1215 37.2604 36.9445L32.8749 39.4586L32.6945 23.7539L28.2638 25.9298Z" fill="#DC9D54"/>
<path fill-rule="evenodd" clip-rule="evenodd" d="M28.2638 25.9298L28.3315 42.029L23.9684 44.5431V36.4259L11.5671 30.0561C9.94363 31.0933 9.88726 32.5251 10.9696 34.2274L19.6731 38.737V44.4867L4.16009 35.6592V18.6243L19.301 27.3165L19.6167 27.4969V29.1542L23.9684 31.5668V27.4969C23.9684 27.4969 23.6753 24.3176 22.097 23.7427L3.38219 13.5284C2.19842 12.8858 0 14.7573 0 17.0234V33.4608C0.0204258 34.6946 0.329907 35.9065 0.90359 36.999C1.47727 38.0916 2.29917 39.0344 3.30327 39.7517L20.4622 49.6051C20.8579 49.8632 21.3201 50.0006 21.7926 50.0006C22.265 50.0006 22.7272 49.8632 23.1229 49.6051L40.2818 39.7517C41.2859 39.0344 42.1078 38.0916 42.6815 36.999C43.2552 35.9065 43.5647 34.6946 43.5851 33.4608V18.2973L38.8839 20.6423V33.0437C38.8839 34.7348 38.5344 36.1215 37.2604 36.9445L32.8749 39.4586L32.6945 23.7539L28.2638 25.9298Z" fill="url(#paint0_linear_2833_188887)"/>
<path fill-rule="evenodd" clip-rule="evenodd" d="M42.4029 11.7133L22.4819 0.202632C21.8843 -0.0566688 21.6927 -0.0679428 21.2981 0.202632L18.0399 2.06283C17.6904 2.25449 17.4537 2.4236 18.0399 2.73927C24.6465 6.57242 31.3094 10.3266 37.9497 14.126C38.5585 14.4191 38.5585 14.4642 39.1899 14.1823L42.5721 12.2996C43.023 12.0516 42.8765 11.9952 42.4593 11.7133H42.4029Z" fill="#DC9D54"/>
<path fill-rule="evenodd" clip-rule="evenodd" d="M42.4029 11.7133L22.4819 0.202632C21.8843 -0.0566688 21.6927 -0.0679428 21.2981 0.202632L18.0399 2.06283C17.6904 2.25449 17.4537 2.4236 18.0399 2.73927C24.6465 6.57242 31.3094 10.3266 37.9497 14.126C38.5585 14.4191 38.5585 14.4642 39.1899 14.1823L42.5721 12.2996C43.023 12.0516 42.8765 11.9952 42.4593 11.7133H42.4029Z" fill="url(#paint1_linear_2833_188887)"/>
<path fill-rule="evenodd" clip-rule="evenodd" d="M37.7235 18.0376L15.8633 5.35443C15.976 4.94856 16.4044 4.22703 16.5171 3.83244C16.6299 3.43785 16.799 3.12218 17.5093 3.52805L37.3514 14.8809C37.8137 15.2304 37.8362 15.2191 37.8249 15.8054L37.7235 18.0602V18.0376Z" fill="#DC9D54"/>
<path fill-rule="evenodd" clip-rule="evenodd" d="M37.7235 18.0376L15.8633 5.35443C15.976 4.94856 16.4044 4.22703 16.5171 3.83244C16.6299 3.43785 16.799 3.12218 17.5093 3.52805L37.3514 14.8809C37.8137 15.2304 37.8362 15.2191 37.8249 15.8054L37.7235 18.0602V18.0376Z" fill="url(#paint2_linear_2833_188887)"/>
<path fill-rule="evenodd" clip-rule="evenodd" d="M43.381 13.1456L43.7643 15.4004L38.6797 18.0724C38.6797 17.3846 38.7699 16.3813 38.815 15.6935C38.8601 15.0058 39.0743 15.0058 39.2998 14.8818L42.9413 12.8863C43.381 12.6383 43.3246 12.7849 43.381 13.1118V13.1456Z" fill="#DC9D54"/>
<path fill-rule="evenodd" clip-rule="evenodd" d="M43.381 13.1456L43.7643 15.4004L38.6797 18.0724C38.6797 17.3846 38.7699 16.3813 38.815 15.6935C38.8601 15.0058 39.0743 15.0058 39.2998 14.8818L42.9413 12.8863C43.381 12.6383 43.3246 12.7849 43.381 13.1118V13.1456Z" fill="url(#paint3_linear_2833_188887)"/>
<path fill-rule="evenodd" clip-rule="evenodd" d="M31.7605 16.7303L11.8395 5.20824C11.2532 4.96021 11.0503 4.93766 10.6557 5.20824C9.52831 5.83958 8.40092 6.47092 7.35244 7.11354C7.00295 7.30519 6.76619 7.46303 7.35244 7.7787C13.9702 11.6119 20.6219 15.3774 27.2622 19.1767C27.871 19.4586 27.871 19.5036 28.5024 19.2331L31.8846 17.339C32.3355 17.1023 32.189 17.0346 31.7718 16.7641L31.7605 16.7303Z" fill="#DC9D54"/>
<path fill-rule="evenodd" clip-rule="evenodd" d="M31.7605 16.7303L11.8395 5.20824C11.2532 4.96021 11.0503 4.93766 10.6557 5.20824C9.52831 5.83958 8.40092 6.47092 7.35244 7.11354C7.00295 7.30519 6.76619 7.46303 7.35244 7.7787C13.9702 11.6119 20.6219 15.3774 27.2622 19.1767C27.871 19.4586 27.871 19.5036 28.5024 19.2331L31.8846 17.339C32.3355 17.1023 32.189 17.0346 31.7718 16.7641L31.7605 16.7303Z" fill="url(#paint4_linear_2833_188887)"/>
<path fill-rule="evenodd" clip-rule="evenodd" d="M27.0564 23.0995L5.21875 10.36C5.33149 9.96536 5.7599 9.23255 5.87264 8.84924C5.98538 8.46592 6.15449 8.1277 6.86475 8.53357L26.7069 19.8977C27.1691 20.236 27.1917 20.2247 27.1804 20.8222L27.0789 23.077L27.0564 23.0995Z" fill="#DC9D54"/>
<path fill-rule="evenodd" clip-rule="evenodd" d="M27.0564 23.0995L5.21875 10.36C5.33149 9.96536 5.7599 9.23255 5.87264 8.84924C5.98538 8.46592 6.15449 8.1277 6.86475 8.53357L26.7069 19.8977C27.1691 20.236 27.1917 20.2247 27.1804 20.8222L27.0789 23.077L27.0564 23.0995Z" fill="url(#paint5_linear_2833_188887)"/>
<path fill-rule="evenodd" clip-rule="evenodd" d="M32.7516 18.1619L33.1237 20.4167L28.0391 23.1112C28.0391 22.4235 28.1293 21.4201 28.1744 20.7324C28.2195 20.0447 28.4337 20.056 28.6592 19.932L32.3007 17.9252C32.7404 17.6772 32.684 17.835 32.7516 18.1619Z" fill="#DC9D54"/>
<path fill-rule="evenodd" clip-rule="evenodd" d="M32.7516 18.1619L33.1237 20.4167L28.0391 23.1112C28.0391 22.4235 28.1293 21.4201 28.1744 20.7324C28.2195 20.0447 28.4337 20.056 28.6592 19.932L32.3007 17.9252C32.7404 17.6772 32.684 17.835 32.7516 18.1619Z" fill="url(#paint6_linear_2833_188887)"/>
<defs>
<linearGradient id="paint0_linear_2833_188887" x1="0" y1="31.7005" x2="43.5851" y2="31.7005" gradientUnits="userSpaceOnUse">
<stop stop-color="#9C761F"/>
<stop offset="0.212798" stop-color="#C6A85A"/>
<stop offset="0.464395" stop-color="#CDB76C"/>
<stop offset="0.735194" stop-color="#C6A85A"/>
<stop offset="1" stop-color="#9C761F"/>
</linearGradient>
<linearGradient id="paint1_linear_2833_188887" x1="17.6836" y1="7.18768" x2="42.8484" y2="7.18768" gradientUnits="userSpaceOnUse">
<stop stop-color="#9C761F"/>
<stop offset="0.212798" stop-color="#C6A85A"/>
<stop offset="0.464395" stop-color="#CDB76C"/>
<stop offset="0.735194" stop-color="#C6A85A"/>
<stop offset="1" stop-color="#9C761F"/>
</linearGradient>
<linearGradient id="paint2_linear_2833_188887" x1="15.8633" y1="10.6995" x2="37.8269" y2="10.6995" gradientUnits="userSpaceOnUse">
<stop stop-color="#9C761F"/>
<stop offset="0.212798" stop-color="#C6A85A"/>
<stop offset="0.464395" stop-color="#CDB76C"/>
<stop offset="0.735194" stop-color="#C6A85A"/>
<stop offset="1" stop-color="#9C761F"/>
</linearGradient>
<linearGradient id="paint3_linear_2833_188887" x1="38.6797" y1="15.4171" x2="43.7643" y2="15.4171" gradientUnits="userSpaceOnUse">
<stop stop-color="#9C761F"/>
<stop offset="0.212798" stop-color="#C6A85A"/>
<stop offset="0.464395" stop-color="#CDB76C"/>
<stop offset="0.735194" stop-color="#C6A85A"/>
<stop offset="1" stop-color="#9C761F"/>
</linearGradient>
<linearGradient id="paint4_linear_2833_188887" x1="6.99609" y1="12.2137" x2="32.1609" y2="12.2137" gradientUnits="userSpaceOnUse">
<stop stop-color="#9C761F"/>
<stop offset="0.212798" stop-color="#C6A85A"/>
<stop offset="0.464395" stop-color="#CDB76C"/>
<stop offset="0.735194" stop-color="#C6A85A"/>
<stop offset="1" stop-color="#9C761F"/>
</linearGradient>
<linearGradient id="paint5_linear_2833_188887" x1="5.21875" y1="15.7245" x2="27.1824" y2="15.7245" gradientUnits="userSpaceOnUse">
<stop stop-color="#9C761F"/>
<stop offset="0.212798" stop-color="#C6A85A"/>
<stop offset="0.464395" stop-color="#CDB76C"/>
<stop offset="0.735194" stop-color="#C6A85A"/>
<stop offset="1" stop-color="#9C761F"/>
</linearGradient>
<linearGradient id="paint6_linear_2833_188887" x1="28.0391" y1="20.4575" x2="33.1237" y2="20.4575" gradientUnits="userSpaceOnUse">
<stop stop-color="#9C761F"/>
<stop offset="0.212798" stop-color="#C6A85A"/>
<stop offset="0.464395" stop-color="#CDB76C"/>
<stop offset="0.735194" stop-color="#C6A85A"/>
<stop offset="1" stop-color="#9C761F"/>
</linearGradient>
</defs>
</svg>
