<svg width="100" height="100" viewBox="0 0 100 100" fill="none" xmlns="http://www.w3.org/2000/svg">
<path d="M87.5 94.1564C87.2454 92.1465 86.3467 90.2732 84.9383 88.817C83.5299 87.3607 81.6877 86.3998 79.6875 86.0782V84.3751C79.6875 82.6847 79.1392 81.0399 78.125 79.6876C77.1108 78.3353 75.6853 77.3484 74.0625 76.8751C72.5 76.422 75.9531 76.5626 28.125 76.5626C26.053 76.5626 24.0659 77.3857 22.6007 78.8508C21.1356 80.316 20.3125 82.3031 20.3125 84.3751V86.0782C18.1296 86.4472 16.1477 87.5768 14.7178 89.267C13.2879 90.9571 12.5022 93.0987 12.5 95.3126V96.8751C12.5 97.2895 12.6646 97.6869 12.9576 97.98C13.2507 98.273 13.6481 98.4376 14.0625 98.4376H85.9375C86.3519 98.4376 86.7493 98.273 87.0424 97.98C87.3354 97.6869 87.5 97.2895 87.5 96.8751C87.5636 95.97 87.5636 95.0615 87.5 94.1564V94.1564ZM23.4375 85.9376V84.3751C23.4375 83.1319 23.9314 81.9396 24.8104 81.0606C25.6895 80.1815 26.8818 79.6876 28.125 79.6876H71.875C73.1182 79.6876 74.3105 80.1815 75.1896 81.0606C76.0686 81.9396 76.5625 83.1319 76.5625 84.3751V85.9376H23.4375ZM15.625 95.3126C15.625 93.655 16.2835 92.0653 17.4556 90.8932C18.6277 89.7211 20.2174 89.0626 21.875 89.0626H78.125C79.7826 89.0626 81.3723 89.7211 82.5444 90.8932C83.7165 92.0653 84.375 93.655 84.375 95.3126H15.625Z" fill="#F7C265"/>
<path d="M48.4377 1.5625C48.0233 1.5625 47.6259 1.72712 47.3328 2.02015C47.0398 2.31317 46.8752 2.7106 46.8752 3.125V10.2656L24.5783 31.3906C16.9064 38.6719 23.2971 51.8438 33.9533 49.875L48.4377 47.1875C48.3985 47.7165 48.2063 48.2227 47.8845 48.6444C47.5627 49.0661 47.1251 49.3851 46.6252 49.5625C40.7552 51.6908 35.6818 55.5728 32.093 60.6822C28.5041 65.7916 26.5734 71.8811 26.5627 78.125C26.5627 78.5394 26.7273 78.9368 27.0203 79.2299C27.3134 79.5229 27.7108 79.6875 28.1252 79.6875H65.6252C69.3548 79.6875 72.9316 78.2059 75.5689 75.5687C78.2061 72.9315 79.6877 69.3546 79.6877 65.625V32.8125C79.6877 28.7087 78.8794 24.6451 77.3089 20.8536C75.7385 17.0622 73.4366 13.6172 70.5348 10.7154C67.6329 7.81358 64.188 5.51172 60.3965 3.94126C56.6051 2.37081 52.5415 1.5625 48.4377 1.5625V1.5625ZM76.5627 65.625C76.5627 68.5258 75.4104 71.3078 73.3592 73.359C71.308 75.4102 68.526 76.5625 65.6252 76.5625H29.6877C30.0074 71.2334 31.8809 66.1147 35.077 61.8385C38.2731 57.5622 42.6517 54.3158 47.6721 52.5C48.8446 52.0751 49.8525 51.2899 50.5514 50.257C51.2503 49.2241 51.6043 47.9964 51.5627 46.75C54.1636 46.3746 56.5425 45.0753 58.264 43.0898C59.9855 41.1043 60.9346 38.5654 60.9377 35.9375C60.9377 35.5231 60.7731 35.1257 60.48 34.8326C60.187 34.5396 59.7896 34.375 59.3752 34.375C58.9608 34.375 58.5634 34.5396 58.2703 34.8326C57.9773 35.1257 57.8127 35.5231 57.8127 35.9375C57.8127 38.0095 56.9896 39.9966 55.5245 41.4618C54.0593 42.9269 52.0722 43.75 50.0002 43.75C49.2814 43.75 33.5627 46.7656 33.4064 46.7969C31.7791 47.0873 30.1015 46.8465 28.6215 46.11C27.1416 45.3736 25.9378 44.1806 25.188 42.7074C24.4383 41.2341 24.1823 39.5588 24.458 37.9289C24.7337 36.299 25.5264 34.801 26.7189 33.6563C51.4221 10.2813 50.0002 11.9219 50.0002 10.9375V4.6875C57.1853 5.08728 63.9439 8.22602 68.885 13.4578C73.8261 18.6895 76.5738 25.6163 76.5627 32.8125V65.625Z" fill="#F7C265"/>
<path d="M70.3125 65.6249V32.8124C70.3016 28.0281 68.7281 23.3784 65.8315 19.5707C62.9348 15.763 58.8735 13.0058 54.2656 11.7186C53.895 11.584 53.589 11.3142 53.4089 10.9634C53.2289 10.6125 53.1882 10.2066 53.2949 9.82696C53.4017 9.44735 53.6481 9.12215 53.9846 8.91659C54.3211 8.71103 54.7229 8.64031 55.1094 8.71863C60.3788 10.1778 65.0245 13.3243 68.3349 17.676C71.6452 22.0277 73.4376 27.3447 73.4375 32.8124V65.6249C73.4375 66.0393 73.2729 66.4367 72.9799 66.7297C72.6869 67.0228 72.2894 67.1874 71.875 67.1874C71.4606 67.1874 71.0632 67.0228 70.7702 66.7297C70.4771 66.4367 70.3125 66.0393 70.3125 65.6249Z" fill="white"/>
<path opacity="0.15" d="M48.4376 47.1875C48.3984 47.7165 48.2062 48.2227 47.8844 48.6444C47.5626 49.0661 47.125 49.3851 46.6251 49.5625C41.9504 51.2591 37.762 54.0741 34.4256 57.7619C31.0891 61.4497 28.7061 65.898 27.4845 70.7187L8.95321 52.1875C3.62854 46.8715 0.450771 39.7789 0.027864 32.2666C-0.395043 24.7544 1.9666 17.35 6.66098 11.4699C11.3554 5.58984 18.0529 1.64698 25.4722 0.39565C32.8916 -0.855679 40.5118 0.672378 46.8751 4.68748V10.2656L24.5782 31.3906C22.8879 32.9931 21.7603 35.0986 21.3632 37.3937C20.9661 39.6888 21.3207 42.0508 22.3743 44.128C23.4278 46.2053 25.124 47.8869 27.2104 48.9224C29.2967 49.9579 31.6617 50.292 33.9532 49.875L48.4376 47.1875Z" fill="#60553F"/>
<path opacity="0.15" d="M87.5 94.1563C87.2454 92.1464 86.3467 90.2731 84.9383 88.8169C83.5299 87.3606 81.6877 86.3997 79.6875 86.0781V84.375C79.6875 82.6846 79.1392 81.0398 78.125 79.6875C77.1108 78.3352 75.6853 77.3483 74.0625 76.875C75.809 75.5651 77.2266 73.8666 78.2029 71.9139C79.1792 69.9613 79.6875 67.8081 79.6875 65.625V36.4531L91.0469 47.8125C94.1725 50.9322 96.5857 54.6917 98.1206 58.8325C99.6556 62.9733 100.276 67.3974 99.9388 71.8006C99.6018 76.2039 98.3156 80.482 96.1684 84.3411C94.0212 88.2001 91.064 91.5485 87.5 94.1563V94.1563Z" fill="#60553F"/>
<path opacity="0.15" d="M79.0625 98.4375C72.8087 100.516 66.0506 100.516 59.7969 98.4375H79.0625Z" fill="#60553F"/>
</svg>
