<svg width="100" height="100" viewBox="0 0 100 100" fill="none" xmlns="http://www.w3.org/2000/svg">
<path d="M51.5625 56.25V62.5C51.5625 62.9144 51.3979 63.3118 51.1049 63.6049C50.8118 63.8979 50.4144 64.0625 50 64.0625C49.5856 64.0625 49.1882 63.8979 48.8951 63.6049C48.6021 63.3118 48.4375 62.9144 48.4375 62.5V56.25C48.4375 55.8356 48.6021 55.4382 48.8951 55.1451C49.1882 54.8521 49.5856 54.6875 50 54.6875C50.4144 54.6875 50.8118 54.8521 51.1049 55.1451C51.3979 55.4382 51.5625 55.8356 51.5625 56.25Z" fill="#F7C265"/>
<path d="M93.7499 48.4375C93.345 37.1072 88.5575 26.3766 80.3963 18.5068C72.235 10.637 61.3374 6.24278 49.9999 6.25001C24.2031 6.25001 4.89055 28.5 6.24993 51.5625C6.65484 62.8928 11.4423 73.6234 19.6036 81.4932C27.7648 89.363 38.6624 93.7572 49.9999 93.75C75.7968 93.75 95.0937 71.5 93.7499 48.4375ZM51.5624 90.625C40.9894 91.0305 30.6753 87.2949 22.8141 80.2128C14.9529 73.1307 10.1649 63.261 9.46868 52.7031C7.65618 30.8594 24.9999 10.2813 48.4374 9.37501C59.0105 8.96954 69.3246 12.7051 77.1858 19.7872C85.047 26.8693 89.8349 36.739 90.5312 47.2969C92.3593 69.1875 74.9999 89.7188 51.5624 90.625ZM6.24993 48.4375H9.37493C9.76162 38.2009 14.0013 28.4884 21.2448 21.2448C28.4883 14.0013 38.2009 9.7617 48.4374 9.37501V6.25001C37.3723 6.63861 26.8661 11.2081 19.0371 19.0371C11.208 26.8662 6.63853 37.3724 6.24993 48.4375V48.4375Z" fill="#EED9B3"/>
<path d="M80.0157 36.7813C77.634 31.3701 73.8345 26.703 69.0189 23.2733C64.2033 19.8435 58.5505 17.7786 52.6581 17.2967C46.7656 16.8148 40.8524 17.9339 35.5436 20.5357C30.2348 23.1375 25.7275 27.1253 22.4983 32.0776C19.269 37.0299 17.4378 42.7626 17.1981 48.6699C16.9585 54.5772 18.3193 60.4394 21.1367 65.637C23.9542 70.8346 28.1236 75.1745 33.2042 78.1977C38.2849 81.221 44.088 82.8155 50.0001 82.8125C55.4556 82.8098 60.8244 81.4468 65.6207 78.8469C70.4169 76.247 74.4892 72.4923 77.469 67.9224C80.4489 63.3526 82.2423 58.1118 82.687 52.6744C83.1316 47.237 82.2135 41.7745 80.0157 36.7813V36.7813ZM50.0001 79.6875C44.1284 79.6875 38.3887 77.9464 33.5066 74.6843C28.6245 71.4222 24.8194 66.7856 22.5724 61.3609C20.3254 55.9362 19.7375 49.9671 20.883 44.2083C22.0285 38.4495 24.856 33.1596 29.0079 29.0078C33.1597 24.8559 38.4495 22.0284 44.2083 20.8829C49.9671 19.7374 55.9363 20.3254 61.361 22.5723C66.7857 24.8193 71.4222 28.6244 74.6843 33.5065C77.9464 38.3886 79.6876 44.1284 79.6876 50C79.6876 57.8736 76.5598 65.4248 70.9923 70.9922C65.4248 76.5597 57.8737 79.6875 50.0001 79.6875V79.6875Z" fill="#FEFDFA"/>
<path d="M51.5625 3.125V12.5C51.5625 12.9144 51.3979 13.3118 51.1049 13.6049C50.8118 13.8979 50.4144 14.0625 50 14.0625C49.5856 14.0625 49.1882 13.8979 48.8951 13.6049C48.6021 13.3118 48.4375 12.9144 48.4375 12.5V3.125C48.4375 2.7106 48.6021 2.31317 48.8951 2.02015C49.1882 1.72712 49.5856 1.5625 50 1.5625C50.4144 1.5625 50.8118 1.72712 51.1049 2.02015C51.3979 2.31317 51.5625 2.7106 51.5625 3.125V3.125Z" fill="#EED9B3"/>
<path d="M51.5625 87.5V96.875C51.5625 97.2894 51.3979 97.6868 51.1049 97.9799C50.8118 98.2729 50.4144 98.4375 50 98.4375C49.5856 98.4375 49.1882 98.2729 48.8951 97.9799C48.6021 97.6868 48.4375 97.2894 48.4375 96.875V87.5C48.4375 87.0856 48.6021 86.6882 48.8951 86.3951C49.1882 86.1021 49.5856 85.9375 50 85.9375C50.4144 85.9375 50.8118 86.1021 51.1049 86.3951C51.3979 86.6882 51.5625 87.0856 51.5625 87.5Z" fill="#EED9B3"/>
<path d="M12.5 51.5625H3.125C2.7106 51.5625 2.31317 51.3979 2.02015 51.1049C1.72712 50.8118 1.5625 50.4144 1.5625 50C1.5625 49.5856 1.72712 49.1882 2.02015 48.8951C2.31317 48.6021 2.7106 48.4375 3.125 48.4375H12.5C12.9144 48.4375 13.3118 48.6021 13.6049 48.8951C13.8979 49.1882 14.0625 49.5856 14.0625 50C14.0625 50.4144 13.8979 50.8118 13.6049 51.1049C13.3118 51.3979 12.9144 51.5625 12.5 51.5625V51.5625Z" fill="#EED9B3"/>
<path d="M96.875 51.5625H87.5C87.0856 51.5625 86.6882 51.3979 86.3951 51.1049C86.1021 50.8118 85.9375 50.4144 85.9375 50C85.9375 49.5856 86.1021 49.1882 86.3951 48.8951C86.6882 48.6021 87.0856 48.4375 87.5 48.4375H96.875C97.2894 48.4375 97.6868 48.6021 97.9799 48.8951C98.2729 49.1882 98.4375 49.5856 98.4375 50C98.4375 50.4144 98.2729 50.8118 97.9799 51.1049C97.6868 51.3979 97.2894 51.5625 96.875 51.5625Z" fill="#EED9B3"/>
<path d="M57.8125 60.9375H42.1875C41.7731 60.9375 41.3757 61.1021 41.0826 61.3951C40.7896 61.6882 40.625 62.0856 40.625 62.5V71.875C40.625 72.2894 40.7896 72.6868 41.0826 72.9799C41.3757 73.2729 41.7731 73.4375 42.1875 73.4375H57.8125C58.2269 73.4375 58.6243 73.2729 58.9174 72.9799C59.2104 72.6868 59.375 72.2894 59.375 71.875V62.5C59.375 62.0856 59.2104 61.6882 58.9174 61.3951C58.6243 61.1021 58.2269 60.9375 57.8125 60.9375ZM43.75 70.3125V64.0625H56.25V70.3125H43.75Z" fill="#F7C265"/>
<path d="M59.375 73.4375H40.625C40.2106 73.4375 39.8132 73.2729 39.5201 72.9799C39.2271 72.6868 39.0625 72.2894 39.0625 71.875C39.0625 71.4606 39.2271 71.0632 39.5201 70.7701C39.8132 70.4771 40.2106 70.3125 40.625 70.3125H59.375C59.7894 70.3125 60.1868 70.4771 60.4799 70.7701C60.7729 71.0632 60.9375 71.4606 60.9375 71.875C60.9375 72.2894 60.7729 72.6868 60.4799 72.9799C60.1868 73.2729 59.7894 73.4375 59.375 73.4375Z" fill="#F7C265"/>
<path d="M62.5 34.9219C62.5 33.7969 62.5 32.5938 62.5 31.25C62.5 30.8356 62.3354 30.4382 62.0424 30.1451C61.7493 29.8521 61.3519 29.6875 60.9375 29.6875H39.0625C38.6481 29.6875 38.2507 29.8521 37.9576 30.1451C37.6646 30.4382 37.5 30.8356 37.5 31.25V34.9219C36.6683 34.5227 35.7489 34.3411 34.828 34.394C33.907 34.4469 33.0144 34.7326 32.2339 35.2243C31.4534 35.7161 30.8104 36.3978 30.365 37.2057C29.9197 38.0136 29.6866 38.9212 29.6875 39.8438V42.1875C29.6875 48.8281 36.2031 52.1094 39.1719 51.5625C40.2686 53.4641 41.8468 55.0433 43.7476 56.1413C45.6484 57.2393 47.8048 57.8174 50 57.8174C52.1952 57.8174 54.3516 57.2393 56.2524 56.1413C58.1533 55.0433 59.7314 53.4641 60.8281 51.5625C63.7969 52.1562 70.3125 48.8594 70.3125 42.1875V39.8438C70.3177 38.9197 70.0873 38.0095 69.643 37.1992C69.1988 36.3889 68.5554 35.7052 67.7735 35.2126C66.9916 34.72 66.0971 34.4348 65.1744 34.384C64.2517 34.3331 63.3313 34.5182 62.5 34.9219V34.9219ZM37.5 48.2344C36.1592 47.8882 34.9713 47.1065 34.1229 46.012C33.2744 44.9175 32.8135 43.5723 32.8125 42.1875V39.8438C32.7524 39.2221 32.9417 38.6021 33.3388 38.1201C33.7358 37.6381 34.3081 37.3335 34.9297 37.2734C35.5513 37.2133 36.1713 37.4027 36.6533 37.7997C37.1354 38.1968 37.4399 38.769 37.5 39.3906V48.2344ZM50 54.6875C47.5136 54.6875 45.129 53.6998 43.3709 51.9416C41.6127 50.1835 40.625 47.7989 40.625 45.3125V32.8125H59.375V45.3125C59.375 47.7989 58.3873 50.1835 56.6291 51.9416C54.871 53.6998 52.4864 54.6875 50 54.6875ZM67.1875 42.1875C67.1865 43.5723 66.7256 44.9175 65.8771 46.012C65.0287 47.1065 63.8408 47.8882 62.5 48.2344C62.5 42.2344 62.5938 45.6563 62.5 39.3594C62.5318 39.0516 62.6239 38.7531 62.7711 38.4809C62.9183 38.2087 63.1176 37.9682 63.3577 37.773C63.5979 37.5779 63.8741 37.4319 64.1706 37.3435C64.4671 37.2551 64.7782 37.226 65.0859 37.2578C65.3937 37.2896 65.6922 37.3817 65.9644 37.5289C66.2366 37.6761 66.4771 37.8754 66.6723 38.1155C66.8674 38.3557 67.0134 38.6319 67.1018 38.9284C67.1902 39.2249 67.2193 39.536 67.1875 39.8438V42.1875Z" fill="#F7C265"/>
<path opacity="0.15" d="M48.4375 5.76577V6.25014C37.3724 6.63874 26.8662 11.2082 19.0371 19.0373C11.2081 26.8663 6.63863 37.3725 6.25003 48.4376H5.76565C2.00946 43.2351 -0.00831343 36.9794 2.57446e-05 30.5626C2.57446e-05 5.59389 28.4219 -8.71861 48.4375 5.76577V5.76577Z" fill="#60553F"/>
<path opacity="0.15" d="M63.2187 19.9844C36.0312 7.92188 7.8125 35.9375 19.9844 63.2187C8.29687 51.5625 9.46875 53.125 9.375 51.5625H12.5C12.9144 51.5625 13.3118 51.3979 13.6049 51.1049C13.8979 50.8118 14.0625 50.4144 14.0625 50C14.0625 49.5856 13.8979 49.1882 13.6049 48.8951C13.3118 48.6021 12.9144 48.4375 12.5 48.4375H9.375C9.76169 38.2009 14.0013 28.4883 21.2448 21.2448C28.4883 14.0013 38.2009 9.76169 48.4375 9.375V12.5C48.4375 12.9144 48.6021 13.3118 48.8951 13.6049C49.1882 13.8979 49.5856 14.0625 50 14.0625C50.4144 14.0625 50.8118 13.8979 51.1049 13.6049C51.3979 13.3118 51.5625 12.9144 51.5625 12.5V9.375C53.125 9.46875 51.5625 8.26562 63.2187 19.9844Z" fill="#60553F"/>
<path opacity="0.15" d="M50 20.3125C44.1284 20.3125 38.3886 22.0536 33.5065 25.3157C28.6244 28.5779 24.8193 33.2144 22.5723 38.6391C20.3254 44.0638 19.7375 50.0329 20.883 55.7917C22.0284 61.5505 24.8559 66.8404 29.0078 70.9922C33.1597 75.1441 38.4495 77.9716 44.2083 79.1171C49.9671 80.2626 55.9362 79.6746 61.3609 77.4277C66.7856 75.1807 71.4222 71.3756 74.6843 66.4935C77.9464 61.6114 79.6875 55.8716 79.6875 50C79.6875 42.1264 76.5597 34.5753 70.9922 29.0078C65.4248 23.4403 57.8736 20.3125 50 20.3125V20.3125ZM70.3125 42.1875C70.3125 44.6739 69.3248 47.0585 67.5666 48.8166C65.8085 50.5748 63.4239 51.5625 60.9375 51.5625H60.8125C59.8497 53.2324 58.5138 54.657 56.9092 55.7249C55.3045 56.7929 53.4746 57.4753 51.5625 57.7187V60.9375H57.8125C58.2269 60.9375 58.6243 61.1021 58.9174 61.3951C59.2104 61.6882 59.375 62.0856 59.375 62.5V70.3125C59.7894 70.3125 60.1868 70.4771 60.4799 70.7701C60.7729 71.0632 60.9375 71.4606 60.9375 71.875C60.9375 72.2894 60.7729 72.6868 60.4799 72.9799C60.1868 73.2729 59.7894 73.4375 59.375 73.4375H40.625C40.2106 73.4375 39.8132 73.2729 39.5202 72.9799C39.2271 72.6868 39.0625 72.2894 39.0625 71.875C39.0625 71.4606 39.2271 71.0632 39.5202 70.7701C39.8132 70.4771 40.2106 70.3125 40.625 70.3125V62.5C40.625 62.0856 40.7896 61.6882 41.0827 61.3951C41.3757 61.1021 41.7731 60.9375 42.1875 60.9375H48.4375V57.7187C46.524 57.4274 44.6958 56.7266 43.0779 55.6642C41.4599 54.6017 40.0903 53.2027 39.0625 51.5625C36.5761 51.5625 34.1915 50.5748 32.4334 48.8166C30.6752 47.0585 29.6875 44.6739 29.6875 42.1875V39.8437C29.6907 38.9228 29.9265 38.0176 30.3729 37.212C30.8193 36.4065 31.462 35.7268 32.2412 35.2359C33.0204 34.7449 33.911 34.4588 34.8303 34.4039C35.7496 34.349 36.6679 34.5272 37.5 34.9219V31.25C37.5 30.8356 37.6646 30.4382 37.9577 30.1451C38.2507 29.8521 38.6481 29.6875 39.0625 29.6875H60.9375C61.3519 29.6875 61.7493 29.8521 62.0424 30.1451C62.3354 30.4382 62.5 30.8356 62.5 31.25V34.9219C63.3317 34.5227 64.2511 34.3411 65.1721 34.394C66.0931 34.4469 66.9856 34.7326 67.7661 35.2243C68.5466 35.7161 69.1897 36.3978 69.635 37.2057C70.0804 38.0136 70.3135 38.9212 70.3125 39.8437V42.1875Z" fill="#60553F"/>
<path opacity="0.15" d="M87.5 51.5625H90.625C90.2383 61.7991 85.9987 71.5117 78.7552 78.7552C71.5117 85.9987 61.7991 90.2383 51.5625 90.625V87.5C51.5625 87.0856 51.3979 86.6882 51.1049 86.3951C50.8118 86.1021 50.4144 85.9375 50 85.9375C49.5856 85.9375 49.1882 86.1021 48.8951 86.3951C48.6021 86.6882 48.4375 87.0856 48.4375 87.5V90.625C46.875 90.625 48.4375 91.7656 36.7812 80.0469C63.9531 92.0781 92.1875 64.0625 80.0156 36.7812C91.7031 48.4375 90.5312 46.875 90.625 48.4375H87.5C87.0856 48.4375 86.6882 48.6021 86.3951 48.8951C86.1021 49.1882 85.9375 49.5856 85.9375 50C85.9375 50.4144 86.1021 50.8118 86.3951 51.1049C86.6882 51.3979 87.0856 51.5625 87.5 51.5625Z" fill="#60553F"/>
<path opacity="0.15" d="M91.0469 91.0469C85.9079 96.1705 79.1136 99.2985 71.8794 99.871C64.6453 100.444 57.4434 98.4234 51.5625 94.1719V93.75C62.6276 93.3614 73.1338 88.7919 80.9629 80.9629C88.7919 73.1338 93.3614 62.6276 93.75 51.5625H94.2812C98.5188 57.4559 100.52 64.6652 99.9278 71.8997C99.3352 79.1342 96.187 85.9216 91.0469 91.0469V91.0469Z" fill="#60553F"/>
<path opacity="0.15" d="M67.3834 39.5686V41.9893C67.3823 43.4196 66.9022 44.809 66.0183 45.9394C65.1344 47.0697 63.8969 47.8771 62.5 48.2347V39.5686C62.5 38.9266 62.7572 38.3109 63.2152 37.857C63.6731 37.403 64.2941 37.1479 64.9417 37.1479C65.5893 37.1479 66.2103 37.403 66.6682 37.857C67.1262 38.3109 67.3834 38.9266 67.3834 39.5686Z" fill="#60553F"/>
<path opacity="0.15" d="M37.5146 39.671V48.3452C36.1579 47.9873 34.9559 47.1792 34.0974 46.0477C33.2389 44.9163 32.7725 43.5256 32.7715 42.094V39.671C32.7715 39.0284 33.0213 38.4121 33.4661 37.9577C33.9109 37.5033 34.5141 37.248 35.1431 37.248C35.772 37.248 36.3753 37.5033 36.82 37.9577C37.2648 38.4121 37.5146 39.0284 37.5146 39.671Z" fill="#60553F"/>
</svg>
