<svg width="100" height="100" viewBox="0 0 100 100" fill="none" xmlns="http://www.w3.org/2000/svg">
<path d="M59.375 85.9375H15.625C15.2106 85.9375 14.8132 85.7729 14.5201 85.4799C14.2271 85.1868 14.0625 84.7894 14.0625 84.375V23.4375C14.0625 23.0231 14.2271 22.6257 14.5201 22.3326C14.8132 22.0396 15.2106 21.875 15.625 21.875C22.6094 21.875 23.0469 21.625 23.6406 22.6563C24.2344 23.6875 24.5 23.4375 32.1719 23.4375C33.0938 22.5 33.5312 21.875 34.375 21.875C42.0781 21.875 40.8594 21.4688 42.8281 23.4375H50C51.5625 23.4375 51.1875 21.875 52.7031 21.875H59.375C59.7894 21.875 60.1868 22.0396 60.4799 22.3326C60.7729 22.6257 60.9375 23.0231 60.9375 23.4375V84.375C60.9375 84.7894 60.7729 85.1868 60.4799 85.4799C60.1868 85.7729 59.7894 85.9375 59.375 85.9375ZM17.1875 82.8125H57.8125V25H53.4844C53.0458 25.4904 52.5088 25.8829 51.9085 26.1522C51.3082 26.4214 50.6579 26.5612 50 26.5625C40.625 26.5625 41.9844 27 39.9844 25H35.0156C34.0937 25.9375 33.6563 26.5625 32.8125 26.5625C25.4063 26.5625 23.3594 27.0781 21.5156 25H17.1875V82.8125Z" fill="#EED9B3"/>
<path d="M62.5 15.625H53.125C52.7106 15.625 52.3132 15.7896 52.0201 16.0826C51.7271 16.3757 51.5625 16.7731 51.5625 17.1875C51.5625 24.5937 52.9219 23.4375 42.8281 23.4375C41.8594 22.4531 41.4844 21.875 40.625 21.875C32.8125 21.875 34.1094 21.4688 32.1719 23.4375H25C24.5856 23.4375 24.1882 23.2729 23.8951 22.9799C23.6021 22.6868 23.4375 22.2894 23.4375 21.875V17.1875C23.4375 16.7731 23.2729 16.3757 22.9799 16.0826C22.6868 15.7896 22.2894 15.625 21.875 15.625H12.5C10.8424 15.625 9.25268 16.2835 8.08058 17.4556C6.90848 18.6277 6.25 20.2174 6.25 21.875V87.5C6.25 89.1576 6.90848 90.7473 8.08058 91.9194C9.25268 93.0915 10.8424 93.75 12.5 93.75H62.5C64.1576 93.75 65.7473 93.0915 66.9194 91.9194C68.0915 90.7473 68.75 89.1576 68.75 87.5V21.875C68.75 20.2174 68.0915 18.6277 66.9194 17.4556C65.7473 16.2835 64.1576 15.625 62.5 15.625V15.625ZM65.625 87.5C65.625 88.3288 65.2958 89.1237 64.7097 89.7097C64.1237 90.2958 63.3288 90.625 62.5 90.625H12.5C11.6712 90.625 10.8763 90.2958 10.2903 89.7097C9.70424 89.1237 9.375 88.3288 9.375 87.5V21.875C9.375 21.0462 9.70424 20.2513 10.2903 19.6653C10.8763 19.0792 11.6712 18.75 12.5 18.75H20.3125C20.3125 22.5 19.9375 24.1094 22.7969 26.0156C23.4788 26.3665 24.2331 26.5538 25 26.5625C34.4687 26.5625 33.0625 26.9844 35.0156 25H39.9844C40.9531 25.9844 41.3281 26.5625 42.1875 26.5625C50.3281 26.5625 51.3281 26.9219 53.125 25.3437C54.9219 23.7656 54.6875 21.375 54.6875 18.75H62.5C63.3288 18.75 64.1237 19.0792 64.7097 19.6653C65.2958 20.2513 65.625 21.0462 65.625 21.875V87.5Z" fill="#EED9B3"/>
<path d="M49.9999 12.5H43.7499C43.7499 10.8424 43.0914 9.25268 41.9193 8.08058C40.7472 6.90848 39.1575 6.25 37.4999 6.25C35.8423 6.25 34.2526 6.90848 33.0805 8.08058C31.9084 9.25268 31.2499 10.8424 31.2499 12.5H24.9999C24.0328 12.5027 23.0902 12.8045 22.3014 13.364C21.5125 13.9234 20.916 14.7132 20.5937 15.625C20.2187 16.6094 20.3124 17 20.3124 21.875C20.315 23.0293 20.7434 24.142 21.5155 25C23.4374 27.1719 25.8437 26.5625 32.8124 26.5625C33.5937 26.5625 33.8437 26.1875 35.0155 25H39.9843C41.9374 26.9844 40.5155 26.5625 49.9999 26.5625C50.8191 26.5619 51.6238 26.3466 52.3338 25.9381C53.0439 25.5296 53.6345 24.9422 54.0468 24.2344C54.953 22.6719 54.6874 21.4375 54.6874 17.1875C54.6874 15.9443 54.1936 14.752 53.3145 13.8729C52.4354 12.9939 51.2431 12.5 49.9999 12.5ZM42.828 23.4375C40.9062 21.4844 42.1874 21.875 34.3749 21.875C33.5937 21.875 33.3437 22.25 32.1718 23.4375C22.0937 23.4375 23.4374 24.6094 23.4374 17.1875C23.4374 16.7731 23.602 16.3757 23.8951 16.0826C24.1881 15.7896 24.5855 15.625 24.9999 15.625H32.8124C33.2268 15.625 33.6242 15.4604 33.9173 15.1674C34.2103 14.8743 34.3749 14.4769 34.3749 14.0625V12.5C34.3749 11.6712 34.7042 10.8763 35.2902 10.2903C35.8763 9.70424 36.6711 9.375 37.4999 9.375C38.3287 9.375 39.1236 9.70424 39.7096 10.2903C40.2957 10.8763 40.6249 11.6712 40.6249 12.5V14.0625C40.6249 14.4769 40.7895 14.8743 41.0826 15.1674C41.3756 15.4604 41.773 15.625 42.1874 15.625H49.9999C50.4143 15.625 50.8118 15.7896 51.1048 16.0826C51.3978 16.3757 51.5624 16.7731 51.5624 17.1875C51.5624 24.5938 52.9218 23.4375 42.828 23.4375Z" fill="#EED9B3"/>
<path d="M37.5 64.0625C34.1006 64.0625 30.7776 63.0545 27.9511 61.1659C25.1247 59.2773 22.9217 56.593 21.6208 53.4524C20.3199 50.3118 19.9796 46.8559 20.6428 43.5219C21.3059 40.1878 22.9429 37.1253 25.3466 34.7216C27.7503 32.3179 30.8128 30.6809 34.1469 30.0178C37.4809 29.3546 40.9368 29.6949 44.0774 30.9958C47.218 32.2967 49.9023 34.4997 51.7909 37.3261C53.6795 40.1526 54.6875 43.4756 54.6875 46.875C54.6875 51.4334 52.8767 55.8051 49.6534 59.0284C46.4301 62.2517 42.0584 64.0625 37.5 64.0625ZM37.5 32.8125C34.7187 32.8125 31.9999 33.6373 29.6873 35.1825C27.3747 36.7277 25.5723 38.9239 24.508 41.4935C23.4436 44.0631 23.1651 46.8906 23.7077 49.6185C24.2503 52.3463 25.5896 54.852 27.5563 56.8187C29.523 58.7854 32.0287 60.1247 34.7565 60.6673C37.4844 61.2099 40.3119 60.9314 42.8815 59.8671C45.4511 58.8027 47.6473 57.0003 49.1926 54.6877C50.7378 52.3752 51.5625 49.6563 51.5625 46.875C51.5625 43.1454 50.0809 39.5685 47.4437 36.9313C44.8065 34.2941 41.2296 32.8125 37.5 32.8125V32.8125Z" fill="#F7C265"/>
<path d="M37.5 56.25C35.6458 56.25 33.8332 55.7002 32.2915 54.67C30.7498 53.6399 29.5482 52.1757 28.8386 50.4627C28.1291 48.7496 27.9434 46.8646 28.3051 45.046C28.6669 43.2275 29.5598 41.557 30.8709 40.2459C32.182 38.9348 33.8525 38.0419 35.671 37.6801C37.4896 37.3184 39.3746 37.5041 41.0877 38.2136C42.8007 38.9232 44.2649 40.1248 45.295 41.6665C46.3252 43.2082 46.875 45.0208 46.875 46.875C46.875 49.3614 45.8873 51.746 44.1291 53.5041C42.371 55.2623 39.9864 56.25 37.5 56.25ZM37.5 40.625C36.2639 40.625 35.0555 40.9916 34.0277 41.6783C32.9999 42.3651 32.1988 43.3412 31.7258 44.4832C31.2527 45.6253 31.1289 46.8819 31.3701 48.0943C31.6113 49.3067 32.2065 50.4203 33.0806 51.2944C33.9547 52.1685 35.0683 52.7638 36.2807 53.0049C37.4931 53.2461 38.7497 53.1223 39.8918 52.6493C41.0338 52.1762 42.0099 51.3751 42.6967 50.3473C43.3834 49.3195 43.75 48.1111 43.75 46.875C43.75 45.2174 43.0915 43.6277 41.9194 42.4556C40.7473 41.2835 39.1576 40.625 37.5 40.625Z" fill="#F7C265"/>
<path d="M89.5157 46.2812C93.8907 37.5937 94.2031 37.6718 93.5156 36.6875C92.8281 35.7031 93.1094 35.9375 76.5625 35.9375C75.2813 35.9375 75.5313 36.0781 70.9219 45.3125H40.1875C39.8436 44.7167 39.3126 44.2511 38.6771 43.9879C38.0415 43.7246 37.3369 43.6784 36.6724 43.8565C36.0079 44.0345 35.4208 44.4268 35.002 44.9726C34.5832 45.5184 34.3562 46.1871 34.3562 46.875C34.3562 47.5629 34.5832 48.2316 35.002 48.7774C35.4208 49.3231 36.0079 49.7154 36.6724 49.8935C37.3369 50.0715 38.0415 50.0254 38.6771 49.7621C39.3126 49.4988 39.8436 49.0332 40.1875 48.4375H70.8907C71.5469 49.8437 72.8438 52.2812 75.1719 56.9531C75.7344 58.1406 75.7188 57.8125 92.1875 57.8125C92.4531 57.813 92.7144 57.7459 92.9467 57.6174C93.1791 57.4889 93.3749 57.3033 93.5157 57.0781C93.6564 56.8529 93.7374 56.5956 93.7511 56.3304C93.7648 56.0652 93.7106 55.8009 93.5938 55.5625C88.6094 45.5156 89.1407 47 89.5157 46.2812ZM77.5313 54.6875L73.625 46.875L77.5313 39.0625H89.6563C85.7188 46.875 85.6563 46.5937 86.0938 47.4843L89.6719 54.6875H77.5313Z" fill="#F7C265"/>
<path d="M51.5625 70.3125H23.4375C23.0231 70.3125 22.6257 70.1479 22.3326 69.8549C22.0396 69.5618 21.875 69.1644 21.875 68.75C21.875 68.3356 22.0396 67.9382 22.3326 67.6451C22.6257 67.3521 23.0231 67.1875 23.4375 67.1875H51.5625C51.9769 67.1875 52.3743 67.3521 52.6674 67.6451C52.9604 67.9382 53.125 68.3356 53.125 68.75C53.125 69.1644 52.9604 69.5618 52.6674 69.8549C52.3743 70.1479 51.9769 70.3125 51.5625 70.3125Z" fill="white"/>
<path d="M51.5625 76.5625H23.4375C23.0231 76.5625 22.6257 76.3979 22.3326 76.1049C22.0396 75.8118 21.875 75.4144 21.875 75C21.875 74.5856 22.0396 74.1882 22.3326 73.8951C22.6257 73.6021 23.0231 73.4375 23.4375 73.4375H51.5625C51.9769 73.4375 52.3743 73.6021 52.6674 73.8951C52.9604 74.1882 53.125 74.5856 53.125 75C53.125 75.4144 52.9604 75.8118 52.6674 76.1049C52.3743 76.3979 51.9769 76.5625 51.5625 76.5625Z" fill="white"/>
<path opacity="0.15" d="M58.8593 15.6248H54.4062C54.0839 14.713 53.4874 13.9232 52.6985 13.3637C51.9097 12.8043 50.9671 12.5025 50 12.4998H43.75C43.75 10.8422 43.0915 9.25245 41.9194 8.08035C40.7473 6.90824 39.1576 6.24976 37.5 6.24976C35.8424 6.24976 34.2527 6.90824 33.0806 8.08035C31.9084 9.25245 31.25 10.8422 31.25 12.4998H25C24.0329 12.5025 23.0903 12.8043 22.3014 13.3637C21.5126 13.9232 20.9161 14.713 20.5937 15.6248H12.5C10.8424 15.6248 9.25265 16.2832 8.08055 17.4553C6.90844 18.6274 6.24996 20.2172 6.24996 21.8748V49.0779C1.53869 42.9124 -0.651032 35.1856 0.124976 27.465C0.900985 19.7444 4.58462 12.608 10.4287 7.50342C16.2727 2.39882 23.8396 -0.291778 31.5945 -0.0226042C39.3493 0.246569 46.7114 3.45536 52.1875 8.95289L58.8593 15.6248Z" fill="#60553F"/>
<path opacity="0.15" d="M91.0469 91.0469C85.8192 96.2785 78.8711 99.4359 71.492 99.933C64.1129 100.43 56.804 98.2332 50.9219 93.75H62.5C64.1576 93.75 65.7473 93.0915 66.9194 91.9194C68.0915 90.7473 68.75 89.1576 68.75 87.5V48.4375H70.9219L75.1719 56.9531C75.7344 58.1406 75.7187 57.8125 92.1875 57.8125C92.453 57.813 92.7143 57.7459 92.9467 57.6174C93.1791 57.4889 93.3749 57.3033 93.5156 57.0781C93.6564 56.853 93.7374 56.5956 93.7511 56.3304C93.7647 56.0652 93.7106 55.801 93.5937 55.5625C88.6094 45.5156 89.1406 47 89.5156 46.2812L91.0781 47.8438C96.796 53.5807 100.004 61.352 99.9982 69.4518C99.9923 77.5516 96.773 85.3182 91.0469 91.0469V91.0469Z" fill="#60553F"/>
<path opacity="0.15" d="M79.1719 35.9375C76.4375 35.9375 75.6563 35.75 75.1719 36.7969L70.9219 45.3125H68.75V25.5156L79.1719 35.9375Z" fill="#60553F"/>
</svg>
